<svg width="109" height="17" viewBox="0 0 109 17" fill="none" xmlns="http://www.w3.org/2000/svg">
<path d="M8.5 0L10.7982 5.33674L16.584 5.87336L12.2186 9.70826L13.4962 15.3766L8.5 12.41L3.50383 15.3766L4.78137 9.70826L0.416019 5.87336L6.20176 5.33674L8.5 0Z" fill="#E1A661"/>
<path d="M31.5 0L33.7982 5.33674L39.584 5.87336L35.2186 9.70826L36.4962 15.3766L31.5 12.41L26.5038 15.3766L27.7814 9.70826L23.416 5.87336L29.2018 5.33674L31.5 0Z" fill="#E1A661"/>
<path d="M54.5 0L56.7982 5.33674L62.584 5.87336L58.2186 9.70826L59.4962 15.3766L54.5 12.41L49.5038 15.3766L50.7814 9.70826L46.416 5.87336L52.2018 5.33674L54.5 0Z" fill="#E1A661"/>
<path d="M77.5 0L79.7982 5.33674L85.584 5.87336L81.2186 9.70826L82.4962 15.3766L77.5 12.41L72.5038 15.3766L73.7814 9.70826L69.416 5.87336L75.2018 5.33674L77.5 0Z" fill="#E1A661"/>
<path d="M100.5 1.26413L102.339 5.53451L102.456 5.80719L102.752 5.83461L107.382 6.26399L103.889 9.33262L103.666 9.52856L103.731 9.81819L104.753 14.3539L100.755 11.9801L100.5 11.8285L100.245 11.9801L96.2469 14.3539L97.2691 9.81819L97.3344 9.52856L97.1114 9.33262L93.6183 6.264L98.2479 5.83461L98.5436 5.80719L98.661 5.53451L100.5 1.26413Z" stroke="#E1A661"/>
</svg>
